<svg class="svg-icon" style="width: 1em;height: 1em;vertical-align: middle;fill: #ffffff;overflow: hidden;" viewBox="0 0 1024 1024" version="1.1" xmlns="http://www.w3.org/2000/svg"><path d="M874.944559 207.159761h-136.14004c-17.108265-105.735431-120.007445-207.159761-226.900066-207.159761S302.112651 101.42433 285.004386 207.159761H148.864346a63.532019 63.532019 0 0 0-68.07002 62.851318v685.238201a68.45575 68.45575 0 0 0 68.07002 68.75072h726.080213a68.45575 68.45575 0 0 0 68.07002-68.75072v-685.238201a63.532019 63.532019 0 0 0-68.07002-62.851318z m-363.040106-138.409041c68.36499 0 141.812542 70.792821 158.830046 138.409041H353.074406c17.017505-67.61622 90.465057-138.409041 158.830047-138.409041z m363.040106 886.49856H148.864346V275.229781h136.14004v57.178816a34.03501 34.03501 0 1 0 68.07002 0v-57.178816h317.660093v57.178816a34.03501 34.03501 0 1 0 68.07002 0v-57.178816h136.14004v680.019499z"  /></svg>